<svg xmlns="http://www.w3.org/2000/svg" width="23.644" height="23.155" viewBox="0 0 23.644 23.155">
  <g id="g-logo-trafigura-white" transform="translate(-42)">
    <path id="Path_428" data-name="Path 428" d="M42.29,2.027A32.274,32.274,0,0,1,48.112.489,36.162,36.162,0,0,1,54.028,0,33.65,33.65,0,0,1,65.349,2.015a.538.538,0,0,1,.295.493.52.52,0,0,1-.29.443A14.757,14.757,0,0,0,62.1,5.035a19.985,19.985,0,0,0-3.415,3.541,20.524,20.524,0,0,0-3.962,9.2,29.1,29.1,0,0,0-.438,5,.476.476,0,0,1-.93,0c0-.051.02-1.11-.106-2.554a21.949,21.949,0,0,0-.33-2.45q-.21-1.153-.528-2.282A20.536,20.536,0,0,0,48.961,8.57a19.033,19.033,0,0,0-3.4-3.525,17.709,17.709,0,0,0-3.223-2.094A.489.489,0,0,1,42,2.493a.529.529,0,0,1,.29-.466" fill="#fff" fill-rule="evenodd"/>
  </g>
</svg>
