<svg xmlns="http://www.w3.org/2000/svg" width="114" height="38.296" viewBox="0 0 114 38.296"><defs><style>.a,.b{fill:#fff;}.b{fill-rule:evenodd;}</style></defs><path class="a" d="M66.464,113.818H62.6v11.117H60.269V113.818H56.212v-2.027h10.82Zm0,0" transform="translate(-56.212 -86.91)"/><path class="a" d="M68.334,113.818v4.115h1.6a2.064,2.064,0,1,0-.137-4.115Zm5.082,11.117c-1.836-2.949-2.975-4.816-3.57-5.086H68.333v5.086H66.005V111.792h3.867c3.357,0,4.63,1.783,4.63,3.76a3.639,3.639,0,0,1-2.519,3.406v.027c.541.328,2.217,2.949,4.137,5.951Zm0,0" transform="translate(-52.152 -86.91)"/><path class="a" d="M80.856,117.165c-.3-.816-.541-1.463-.678-1.978h-.027a20.311,20.311,0,0,1-.674,1.978l-1,2.732H81.88Zm3.055,7.787-1.3-3.109H77.743l-1.219,3.109H74.04l5.437-13.2h1.486l5.437,13.2Zm0,0" transform="translate(-48.822 -86.927)"/><path class="a" d="M92.266,113.818H87.344v3.6h4.865v2H87.344v5.516H85.016V111.792h7.951Zm0,0" transform="translate(-44.273 -86.91)"/><path class="a" d="M93.343,111.792h2.324v13.144H93.343Zm0,0" transform="translate(-40.821 -86.91)"/><path class="a" d="M104.39,125.269a6.309,6.309,0,0,1-6.545-6.625c0-4,2.785-7.006,7.2-7.006a9.15,9.15,0,0,1,3.676.7l-.027,2.222a7.291,7.291,0,0,0-3.379-.949,4.633,4.633,0,0,0-5.033,4.869,4.544,4.544,0,0,0,4.519,4.842,7.221,7.221,0,0,0,2-.27v-4.6h2.3v5.734a9.779,9.779,0,0,1-4.7,1.082" transform="translate(-38.955 -86.974)"/><path class="a" d="M118.391,123.8a6.107,6.107,0,0,1-4.328,1.406,5.684,5.684,0,0,1-3.893-1.188,4.506,4.506,0,0,1-1.352-3.517v-8.709h2.324v8.683a2.592,2.592,0,0,0,.811,2.058,3.277,3.277,0,0,0,2.217.7,3.633,3.633,0,0,0,2.488-.732,2.443,2.443,0,0,0,.732-1.947v-8.762h2.328v8.439a4.706,4.706,0,0,1-1.326,3.57" transform="translate(-34.407 -86.91)"/><path class="a" d="M122.089,113.818v4.115h1.6a2.063,2.063,0,1,0-.137-4.115Zm5.082,11.117c-1.836-2.949-2.975-4.816-3.57-5.086h-1.512v5.086h-2.328V111.792h3.867c3.357,0,4.63,1.783,4.63,3.76a3.639,3.639,0,0,1-2.519,3.406v.027c.541.328,2.217,2.949,4.137,5.951Zm0,0" transform="translate(-29.871 -86.91)"/><path class="a" d="M134.882,117.165c-.3-.816-.541-1.463-.678-1.978h-.027a19.166,19.166,0,0,1-.674,1.978l-1,2.732h3.41Zm3.055,7.787-1.3-3.109h-4.865l-1.219,3.109h-2.488l5.437-13.2h1.49l5.437,13.2Zm0,0" transform="translate(-26.429 -86.927)"/><path class="b" d="M86.033,96.237a32.518,32.518,0,0,1,5.853-1.548,36.439,36.439,0,0,1,5.947-.488,33.925,33.925,0,0,1,11.383,2.022.547.547,0,0,1,.3.5.53.53,0,0,1-.293.448,14.746,14.746,0,0,0-3.268,2.093,19.971,19.971,0,0,0-3.432,3.561,20.606,20.606,0,0,0-3.987,9.25,29.329,29.329,0,0,0-.439,5.029.479.479,0,0,1-.936,0c0-.053.022-1.117-.106-2.568a21.891,21.891,0,0,0-.333-2.466c-.1-.514-.253-1.326-.528-2.293a20.6,20.6,0,0,0-3.454-6.962,19,19,0,0,0-3.414-3.548,17.564,17.564,0,0,0-3.237-2.1.5.5,0,0,1-.346-.461.539.539,0,0,1,.293-.47" transform="translate(-43.972 -94.201)"/></svg>